<svg width="56" height="60" viewBox="0 0 56 60" fill="none" xmlns="http://www.w3.org/2000/svg">
<g id="Calque_3" clip-path="url(#clip0_7_353)">
<g id="Group">
<path id="Vector" d="M27.7433 1.23535C16.0729 1.23535 15.4306 8.29185 16.2409 16.8703C17.0611 25.4686 22.4565 32.4954 27.7433 32.4954C33.03 32.4954 38.4255 25.4587 39.2457 16.8703C40.056 8.29185 39.4137 1.23535 27.7433 1.23535Z" stroke="#072C7D" stroke-width="2.5" stroke-linejoin="round"/>
<path id="Vector_2" d="M31.192 8.16333C31.192 8.16333 29.9568 14.0339 21.0237 14.0339" stroke="#072C7D" stroke-width="2.5" stroke-linecap="round" stroke-linejoin="round"/>
<path id="Vector_3" d="M30.1741 10.5452C30.1741 10.5452 34.1861 13.2927 39.1171 14.5775" stroke="#072C7D" stroke-width="2.5" stroke-linecap="round" stroke-linejoin="round"/>
</g>
<g id="Group_2">
<g id="Group_3">
<path id="Vector_4" d="M25.9314 45.9067L24.3108 58.7646" stroke="#0360F5" stroke-width="2" stroke-linecap="round" stroke-linejoin="round"/>
<path id="Vector_5" d="M29.6074 45.9067L31.228 58.7646" stroke="#0360F5" stroke-width="2" stroke-linecap="round" stroke-linejoin="round"/>
</g>
<g id="Group_4">
<path id="Vector_6" d="M0.999756 58.7645L1.99781 45.4916C2.98599 38.1683 7.38338 37.348 7.38338 37.348C7.38338 37.348 12.176 35.994 17.275 35.144L21.7317 44.1574" stroke="#072C7D" stroke-width="2.5" stroke-linecap="round" stroke-linejoin="round"/>
<path id="Vector_7" d="M54.5293 58.7645L53.5313 45.4916C52.5431 38.1683 48.1457 37.348 48.1457 37.348C48.1457 37.348 43.353 35.994 38.254 35.144L33.7974 44.1574" stroke="#072C7D" stroke-width="2.5" stroke-linecap="round" stroke-linejoin="round"/>
</g>
<path id="Vector_8" d="M27.7794 47.7153L23.1152 42.4476L27.7498 37.1799H27.7794L32.414 42.4476L27.7794 47.7153Z" stroke="#0360F5" stroke-width="2" stroke-linecap="round" stroke-linejoin="round"/>
</g>
</g>
<defs>
<clipPath id="clip0_7_353">
<rect width="56" height="60" fill="white"/>
</clipPath>
</defs>
</svg>
