<svg width="195" height="79" viewBox="0 0 195 79" fill="none" xmlns="http://www.w3.org/2000/svg">
<g filter="url(#filter0_bdii_719_23126)">
<rect x="7" width="181" height="64" rx="32" fill="black" fill-opacity="0.1" shape-rendering="crispEdges"/>
<rect x="15" y="8" width="48" height="48" rx="24" fill="white"/>
<path d="M33.167 24.5L44.8337 32L33.167 39.5V24.5Z" stroke="#072C7D" stroke-width="2" stroke-linecap="round" stroke-linejoin="round"/>
<path d="M80.4347 39.5V24.9545H89.7528V27.1634H83.0696V31.1122H89.1136V33.321H83.0696V39.5H80.4347ZM94.7884 24.9545V39.5H92.1534V24.9545H94.7884ZM93.4744 23.4062C93.0625 23.4062 92.7098 23.2713 92.4162 23.0014C92.1274 22.7268 91.983 22.3977 91.983 22.0142C91.983 21.6259 92.1297 21.2969 92.4233 21.027C92.7169 20.7524 93.0672 20.6151 93.4744 20.6151C93.8816 20.6151 94.2296 20.7524 94.5185 21.027C94.812 21.2969 94.9588 21.6259 94.9588 22.0142C94.9588 22.3977 94.812 22.7268 94.5185 23.0014C94.2296 23.2713 93.8816 23.4062 93.4744 23.4062ZM100.099 24.9545V39.5H97.5281V24.9545H100.099ZM102.743 39.5V28.5909H105.2V30.4446H105.328C105.555 29.8196 105.932 29.3319 106.457 28.9815C106.983 28.6264 107.61 28.4489 108.339 28.4489C109.078 28.4489 109.701 28.6288 110.207 28.9886C110.719 29.3437 111.079 29.8291 111.287 30.4446H111.401C111.642 29.8385 112.049 29.3556 112.622 28.9957C113.2 28.6312 113.884 28.4489 114.675 28.4489C115.679 28.4489 116.498 28.7661 117.132 29.4006C117.767 30.035 118.084 30.9607 118.084 32.1776V39.5H115.506V32.5753C115.506 31.8982 115.326 31.4034 114.966 31.0909C114.606 30.7737 114.166 30.6151 113.645 30.6151C113.025 30.6151 112.539 30.8092 112.189 31.1974C111.843 31.581 111.67 32.0805 111.67 32.696V39.5H109.149V32.4688C109.149 31.9053 108.979 31.4555 108.638 31.1193C108.302 30.7831 107.861 30.6151 107.317 30.6151C106.947 30.6151 106.611 30.7098 106.308 30.8991C106.005 31.0838 105.764 31.3466 105.584 31.6875C105.404 32.0237 105.314 32.4167 105.314 32.8665V39.5H102.743ZM120.692 39.5V28.5909H123.263V39.5H120.692ZM121.985 27.0426C121.578 27.0426 121.227 26.9077 120.934 26.6378C120.64 26.3632 120.493 26.0341 120.493 25.6506C120.493 25.2623 120.64 24.9332 120.934 24.6634C121.227 24.3887 121.578 24.2514 121.985 24.2514C122.397 24.2514 122.747 24.3887 123.036 24.6634C123.329 24.9332 123.476 25.2623 123.476 25.6506C123.476 26.0341 123.329 26.3632 123.036 26.6378C122.747 26.9077 122.397 27.0426 121.985 27.0426ZM133.616 24.9545V39.5H130.982V24.9545H133.616ZM132.303 23.4062C131.891 23.4062 131.538 23.2713 131.244 23.0014C130.955 22.7268 130.811 22.3977 130.811 22.0142C130.811 21.6259 130.958 21.2969 131.251 21.027C131.545 20.7524 131.895 20.6151 132.303 20.6151C132.71 20.6151 133.058 20.7524 133.347 21.027C133.64 21.2969 133.787 21.6259 133.787 22.0142C133.787 22.3977 133.64 22.7268 133.347 23.0014C133.058 23.2713 132.71 23.4062 132.303 23.4062ZM136.214 39.5V37.8665L141.839 30.8139V30.7216H136.399V28.5909H144.985V30.3452L139.63 37.277V37.3693H145.17V39.5H136.214ZM150.158 24.9545V39.5H147.587V24.9545H150.158ZM157.631 39.7131C156.537 39.7131 155.593 39.4858 154.797 39.0312C154.007 38.572 153.398 37.9233 152.972 37.0852C152.546 36.2424 152.333 35.2505 152.333 34.1094C152.333 32.9872 152.546 32.0024 152.972 31.1548C153.403 30.3026 154.004 29.6397 154.776 29.1662C155.548 28.688 156.454 28.4489 157.496 28.4489C158.168 28.4489 158.803 28.5578 159.4 28.7756C160.001 28.9886 160.531 29.3201 160.99 29.7699C161.454 30.2197 161.819 30.7926 162.084 31.4886C162.349 32.1799 162.482 33.0038 162.482 33.9602V34.7486H153.54V33.0156H160.017C160.013 32.5232 159.906 32.0852 159.698 31.7017C159.489 31.3134 159.198 31.008 158.824 30.7855C158.455 30.563 158.024 30.4517 157.532 30.4517C157.006 30.4517 156.544 30.5795 156.147 30.8352C155.749 31.0862 155.439 31.4176 155.216 31.8295C154.998 32.2367 154.887 32.6842 154.882 33.1719V34.6847C154.882 35.3191 154.998 35.8636 155.23 36.3182C155.462 36.768 155.787 37.1136 156.203 37.3551C156.62 37.5919 157.108 37.7102 157.667 37.7102C158.041 37.7102 158.379 37.6581 158.682 37.554C158.985 37.4451 159.248 37.2865 159.471 37.0781C159.693 36.8698 159.861 36.6117 159.975 36.304L162.375 36.5739C162.224 37.2083 161.935 37.7623 161.509 38.2358C161.087 38.7045 160.548 39.0691 159.89 39.3295C159.231 39.5852 158.479 39.7131 157.631 39.7131Z" fill="white"/>
</g>
<defs>
<filter id="filter0_bdii_719_23126" x="-97.2021" y="-104.202" width="389.404" height="272.404" filterUnits="userSpaceOnUse" color-interpolation-filters="sRGB">
<feFlood flood-opacity="0" result="BackgroundImageFix"/>
<feGaussianBlur in="BackgroundImageFix" stdDeviation="52.1011"/>
<feComposite in2="SourceAlpha" operator="in" result="effect1_backgroundBlur_719_23126"/>
<feColorMatrix in="SourceAlpha" type="matrix" values="0 0 0 0 0 0 0 0 0 0 0 0 0 0 0 0 0 0 127 0" result="hardAlpha"/>
<feOffset dy="8.33617"/>
<feGaussianBlur stdDeviation="3.12606"/>
<feComposite in2="hardAlpha" operator="out"/>
<feColorMatrix type="matrix" values="0 0 0 0 0 0 0 0 0 0 0 0 0 0 0 0 0 0 0.05 0"/>
<feBlend mode="normal" in2="effect1_backgroundBlur_719_23126" result="effect2_dropShadow_719_23126"/>
<feBlend mode="normal" in="SourceGraphic" in2="effect2_dropShadow_719_23126" result="shape"/>
<feColorMatrix in="SourceAlpha" type="matrix" values="0 0 0 0 0 0 0 0 0 0 0 0 0 0 0 0 0 0 127 0" result="hardAlpha"/>
<feOffset dy="1.04202"/>
<feGaussianBlur stdDeviation="0.521011"/>
<feComposite in2="hardAlpha" operator="arithmetic" k2="-1" k3="1"/>
<feColorMatrix type="matrix" values="0 0 0 0 1 0 0 0 0 1 0 0 0 0 1 0 0 0 0.25 0"/>
<feBlend mode="normal" in2="shape" result="effect3_innerShadow_719_23126"/>
<feColorMatrix in="SourceAlpha" type="matrix" values="0 0 0 0 0 0 0 0 0 0 0 0 0 0 0 0 0 0 127 0" result="hardAlpha"/>
<feOffset dy="-1.04202"/>
<feGaussianBlur stdDeviation="0.521011"/>
<feComposite in2="hardAlpha" operator="arithmetic" k2="-1" k3="1"/>
<feColorMatrix type="matrix" values="0 0 0 0 1 0 0 0 0 1 0 0 0 0 1 0 0 0 0.1 0"/>
<feBlend mode="normal" in2="effect3_innerShadow_719_23126" result="effect4_innerShadow_719_23126"/>
</filter>
</defs>
</svg>
