<svg width="925" height="209" viewBox="0 0 925 209" fill="none" xmlns="http://www.w3.org/2000/svg">
<path fill-rule="evenodd" clip-rule="evenodd" d="M341.058 31.6821V210.302H381.384V195.997C393.392 207.616 408.238 213.43 425.945 213.43C445.305 213.43 460.905 206.145 472.758 191.564C483.856 178.034 489.411 161.607 489.411 141.819C489.411 122.031 483.723 105.372 472.347 91.8411C460.217 77.5697 444.351 70.4284 424.737 70.4284C409.913 70.4284 395.765 75.6462 382.293 86.0706V31.6821H341.058ZM438.741 117.908C445.038 124.098 448.187 131.726 448.187 140.813H448.176C448.176 151.094 445.704 159.44 440.759 165.84C435.215 172.993 427.42 176.563 417.375 176.563C406.575 176.563 397.882 173.435 391.285 167.178C384.688 160.921 381.395 152.431 381.395 141.708C381.395 131.87 384.622 123.91 391.064 117.797C397.517 111.684 405.688 108.633 415.578 108.633C424.726 108.633 432.443 111.728 438.741 117.908ZM246.758 215C226.434 215 208.96 207.958 194.313 193.886C179.666 179.813 172.349 162.645 172.349 142.382C172.349 122.119 179.633 104.322 194.202 90.7687C208.772 77.2158 226.59 70.4393 247.656 70.4393C268.723 70.4393 286.352 77.1052 300.544 90.437C314.737 103.769 321.833 120.859 321.833 141.719C321.833 162.579 314.77 181.118 300.655 194.671C286.541 208.223 268.568 215 246.758 215ZM280.598 141.045C280.598 131.814 277.449 124.253 271.151 118.361C264.853 112.48 256.981 109.539 247.534 109.539C238.087 109.539 229.772 112.701 223.474 119.035C217.176 125.369 214.027 133.373 214.027 143.057C214.027 152.741 217.209 160.225 223.585 166.404C229.949 172.584 237.866 175.679 247.312 175.679C257.801 175.679 265.973 172.55 271.816 166.294C277.659 160.037 280.587 151.624 280.587 141.045H280.598ZM73.7197 163.907L103.146 134.535L179.219 210.391H120.332L73.7197 163.907ZM550.158 73.1157V210.314H508.468V73.1157H550.158ZM576.582 31.6821V210.302H616.908V195.997C628.916 207.616 643.762 213.43 661.469 213.43C680.828 213.43 696.428 206.145 708.281 191.564C719.38 178.034 724.935 161.607 724.935 141.819C724.935 122.031 719.247 105.372 707.871 91.8411C695.741 77.5697 679.875 70.4284 660.26 70.4284C645.436 70.4284 631.288 75.6462 617.817 86.0706V31.6821H576.582ZM674.264 117.908C680.562 124.098 683.711 131.726 683.711 140.813H683.7C683.7 151.094 681.227 159.44 676.282 165.84C670.738 172.993 662.944 176.563 652.898 176.563C642.099 176.563 633.406 173.435 626.809 167.178C620.212 160.921 616.919 152.431 616.919 141.708C616.919 131.87 620.145 123.91 626.587 117.797C633.04 111.684 641.212 108.633 651.102 108.633C660.249 108.633 667.966 111.728 674.264 117.908ZM550.025 31.6821L508.468 73.1147V31.6821H550.025ZM785.674 210.314V73.1157H743.985V210.314H785.674ZM785.541 31.6821L743.985 73.1147V31.6821H785.541ZM809.355 109.983H857.675L857.687 109.994L800.596 210.314H922.317V173.668H868.309L925 73.1157H809.355V109.983Z" fill="white"/>
<path d="M0 31.6824V210.302L210.943 0H151.924L41.6454 109.949V31.6824H0Z" fill="#0360F5"/>
</svg>
