<svg width="190" height="44" viewBox="0 0 190 44" fill="none" xmlns="http://www.w3.org/2000/svg">
<path fill-rule="evenodd" clip-rule="evenodd" d="M69.7424 6.48389V43.0386H77.9885V40.1112C80.444 42.4889 83.4799 43.6789 87.1008 43.6789C91.0595 43.6789 94.2496 42.188 96.6734 39.204C98.9429 36.4349 100.079 33.0731 100.079 29.0235C100.079 24.9739 98.9157 21.5646 96.5895 18.7955C94.109 15.8748 90.8645 14.4134 86.8537 14.4134C83.8223 14.4134 80.9292 15.4812 78.1744 17.6146V6.48389H69.7424ZM89.7173 24.1301C91.0051 25.397 91.649 26.958 91.649 28.8176H91.6468C91.6468 30.9216 91.1411 32.6296 90.1299 33.9395C88.9963 35.4033 87.4024 36.134 85.3482 36.134C83.1398 36.134 81.3623 35.4938 80.0132 34.2133C78.6642 32.9328 77.9908 31.1953 77.9908 29.0009C77.9908 26.9874 78.6506 25.3585 79.9679 24.1074C81.2875 22.8564 82.9585 22.232 84.9809 22.232C86.8514 22.232 88.4295 22.8654 89.7173 24.1301ZM50.4591 44.0001C46.3031 44.0001 42.7299 42.559 39.7348 39.679C36.7397 36.7991 35.2432 33.2857 35.2432 29.1388C35.2432 24.992 36.7329 21.3496 39.7121 18.576C42.6913 15.8024 46.3349 14.4156 50.6428 14.4156C54.9506 14.4156 58.5556 15.7798 61.4578 18.5081C64.3599 21.2365 65.811 24.7341 65.811 29.0031C65.811 33.2721 64.3667 37.066 61.4805 39.8397C58.5942 42.6133 54.9189 44.0001 50.4591 44.0001ZM57.3789 28.8651C57.3789 26.976 56.735 25.4286 55.4472 24.2228C54.1593 23.0192 52.5496 22.4175 50.6178 22.4175C48.6861 22.4175 46.9856 23.0645 45.6978 24.3608C44.41 25.6571 43.766 27.295 43.766 29.2768C43.766 31.2586 44.4167 32.7902 45.7204 34.0549C47.0219 35.3195 48.6407 35.953 50.5725 35.953C52.7173 35.953 54.3883 35.3127 55.5832 34.0323C56.7781 32.7518 57.3766 31.0301 57.3766 28.8651H57.3789ZM15.0748 33.5438L21.0922 27.5328L36.6482 43.0569H24.6066L15.0748 33.5438ZM112.501 14.9633V43.0411H103.976V14.9633H112.501ZM117.904 6.48389V43.0386H126.15V40.1112C128.606 42.4889 131.642 43.6789 135.263 43.6789C139.221 43.6789 142.411 42.188 144.835 39.204C147.105 36.4349 148.241 33.0731 148.241 29.0235C148.241 24.9739 147.077 21.5646 144.751 18.7955C142.271 15.8748 139.026 14.4134 135.015 14.4134C131.984 14.4134 129.091 15.4812 126.336 17.6146V6.48389H117.904ZM137.879 24.1301C139.167 25.397 139.811 26.958 139.811 28.8176H139.809C139.809 30.9216 139.303 32.6296 138.292 33.9395C137.158 35.4033 135.564 36.134 133.51 36.134C131.302 36.134 129.524 35.4938 128.175 34.2133C126.826 32.9328 126.153 31.1953 126.153 29.0009C126.153 26.9874 126.812 25.3585 128.13 24.1074C129.449 22.8564 131.12 22.232 133.143 22.232C135.013 22.232 136.591 22.8654 137.879 24.1301ZM112.474 6.48389L103.976 14.9631V6.48389H112.474ZM160.661 43.0411V14.9633H152.136V43.0411H160.661ZM160.634 6.48389L152.136 14.9631V6.48389H160.634ZM165.504 22.5082H175.384L175.387 22.5104L163.712 43.0411H188.603V35.5415H177.559L189.152 14.9633H165.504V22.5082Z" fill="white"/>
<path d="M0 6.48384V43.0386L43.1354 0H31.0666L8.51598 22.5011V6.48384H0Z" fill="#0360F5"/>
</svg>
