<svg width="185" height="36" viewBox="0 0 185 36" fill="none" xmlns="http://www.w3.org/2000/svg">
<g id="Layer 1">
<g id="Group">
<path id="Vector" d="M18.3792 20.0104C18.1939 16.3695 16.6126 14.5701 13.0281 14.5701C8.93244 14.5701 7.11784 16.9833 7.11784 22.5178C7.11784 28.0522 8.93244 30.4655 13.0281 30.4655C16.6094 30.4655 18.1939 28.7148 18.3792 24.8368H25.1265C24.9859 32.0732 20.8456 35.9999 13.076 35.9999C4.60679 35.9999 0 31.3164 0 22.5178C0 13.7192 4.60679 9.03564 13.076 9.03564C20.7529 9.03564 24.9412 13.0566 25.1265 20.0104H18.3792Z" fill="white"/>
<path id="Vector_2" d="M27.9922 22.5178C27.9922 13.7192 32.5511 9.03564 41.0203 9.03564C49.4895 9.03564 54.0963 13.7192 54.0963 22.5178C54.0963 31.3164 49.5374 35.9999 41.0203 35.9999C32.5031 35.9999 27.9922 31.3164 27.9922 22.5178ZM47.0232 22.5178C47.0232 16.9833 45.1606 14.5701 41.0203 14.5701C36.8799 14.5701 35.11 16.9833 35.11 22.5178C35.11 28.0522 36.9246 30.4655 41.0203 30.4655C45.1159 30.4655 47.0232 28.0522 47.0232 22.5178Z" fill="white"/>
<path id="Vector_3" d="M58.3707 35.4771V0H65.3033V35.4771H58.3707Z" fill="white"/>
<path id="Vector_4" d="M69.5044 22.5178C69.5044 13.7192 74.0633 9.03564 82.5325 9.03564C91.0017 9.03564 95.6085 13.7192 95.6085 22.5178C95.6085 31.3164 91.0496 35.9999 82.5325 35.9999C74.0153 35.9999 69.5044 31.3164 69.5044 22.5178ZM88.5354 22.5178C88.5354 16.9833 86.6728 14.5701 82.5325 14.5701C78.3921 14.5701 76.6222 16.9833 76.6222 22.5178C76.6222 28.0522 78.4368 30.4655 82.5325 30.4655C86.6281 30.4655 88.5354 28.0522 88.5354 22.5178Z" fill="white"/>
<path id="Vector_5" d="M99.8319 9.604H106.764V12.9624C107.742 10.7862 109.557 9.604 111.975 9.604H116.627V16.0381H108.669C107.413 16.0381 106.761 16.7494 106.761 18.1201V35.4802H99.8287V9.604H99.8319Z" fill="white"/>
<path id="Vector_6" d="M119.684 9.6042H126.616V13.768C128.198 10.7864 130.942 9.03906 135.038 9.03906C140.759 9.03906 143.366 12.1603 143.366 17.9806V35.4837H136.478V19.2116C136.478 16.0416 135.13 14.6222 131.92 14.6222C128.476 14.6222 126.616 16.5158 126.616 20.2054V35.4837H119.684V9.6042Z" fill="white"/>
<path id="Vector_7" d="M155.746 6.24576H148.765V0H155.746V6.24576ZM155.698 35.4803H148.765V9.60411H155.698V35.4803Z" fill="white"/>
<path id="Vector_8" d="M178.253 20.0104C178.067 16.3695 176.486 14.5701 172.902 14.5701C168.806 14.5701 166.991 16.9833 166.991 22.5178C166.991 28.0522 168.806 30.4655 172.902 30.4655C176.483 30.4655 178.067 28.7148 178.253 24.8368H185C184.859 32.0732 180.719 35.9999 172.95 35.9999C164.48 35.9999 159.874 31.3164 159.874 22.5178C159.874 13.7192 164.48 9.03564 172.95 9.03564C180.626 9.03564 184.815 13.0566 185 20.0104H178.253Z" fill="white"/>
</g>
</g>
</svg>
