<svg width="253" height="36" viewBox="0 0 253 36" fill="none" xmlns="http://www.w3.org/2000/svg">
<path id="Union" fill-rule="evenodd" clip-rule="evenodd" d="M82.8595 0V35.4398H76.6499L76.0672 32.8319H73.8365L73.0595 33.5305C72.3019 34.2266 71.4604 34.8332 70.5531 35.3375C69.6272 35.7981 68.5936 36.0221 67.5517 35.988C66.3025 36.0101 65.0623 35.7803 63.9112 35.3134C62.8009 34.8296 61.8636 34.0419 61.2168 33.0487C60.393 31.7571 59.8337 30.326 59.5688 28.8325C59.158 26.7055 58.9649 24.545 58.9924 22.3818C58.9567 20.2092 59.1435 18.0384 59.55 15.901C59.8168 14.408 60.376 12.9773 61.198 11.6848C61.8469 10.6948 62.7837 9.90945 63.8924 9.42613C65.0435 8.95925 66.2837 8.72945 67.5329 8.75155C68.5748 8.71735 69.6084 8.94136 70.5343 9.40204C71.4416 9.90625 72.2831 10.5129 73.0407 11.209L73.8177 11.9076H76.0985L75.5659 8.7395V0H82.8595ZM71.3865 15.5998C70.8431 15.3172 70.2371 15.1644 69.6195 15.1541C69.1192 15.1413 68.6242 15.2555 68.1845 15.4854C67.7319 15.7548 67.3773 16.1525 67.1695 16.6237C66.8404 17.3262 66.629 18.0743 66.5429 18.8402C66.3982 20.0154 66.3334 21.1985 66.3486 22.3818C66.3332 23.5671 66.3981 24.7522 66.5429 25.9294C66.629 26.6953 66.8404 27.4434 67.1695 28.1459C67.3773 28.6171 67.7319 29.0148 68.1845 29.2843C68.6258 29.5094 69.12 29.6214 69.6195 29.6095C70.2366 29.6013 70.8427 29.4505 71.3865 29.1698C71.9817 28.8747 72.8026 28.4169 73.8365 27.7966L75.5847 26.7184V18.0693L73.8365 16.9972C72.7775 16.3527 71.9817 15.8949 71.3865 15.5998ZM33.3857 22.3818C33.3899 27.112 34.3193 30.5632 36.174 32.7355C38.0204 34.9119 41.0532 36 45.2722 36C49.4788 35.996 52.5115 34.9079 54.3704 32.7355C56.2294 30.5632 57.1588 27.112 57.1588 22.3818C57.1546 17.72 56.2252 14.2848 54.3704 12.0763C52.5241 9.87188 49.4913 8.76966 45.2722 8.76966C41.0532 8.76966 38.0204 9.86185 36.174 12.0462C34.311 14.2065 33.3815 17.6517 33.3857 22.3818ZM48.7185 28.7964C48.416 29.3528 47.9286 29.796 47.3338 30.0553C46.0021 30.5211 44.5424 30.5211 43.2107 30.0553C42.6129 29.7935 42.1201 29.3516 41.8072 28.7964C41.3791 28.0383 41.1068 27.2081 41.0051 26.3511C40.8233 25.0355 40.7416 23.7089 40.7607 22.3818C40.7424 21.0728 40.8241 19.7643 41.0051 18.4668C41.1057 17.6096 41.378 16.7791 41.8072 16.0215C42.1223 15.4621 42.6137 15.0129 43.2107 14.7385C44.5358 14.2383 46.0087 14.2383 47.3338 14.7385C47.9271 15.0115 48.4129 15.4615 48.7185 16.0215C49.1278 16.7957 49.3989 17.6304 49.5206 18.4909C49.7137 19.7793 49.8017 21.0803 49.7838 22.3818C49.8043 23.7095 49.7163 25.0366 49.5206 26.3511C49.3948 27.203 49.1239 28.0292 48.7185 28.7964ZM8.86688 11.986H6.98708L6.45448 9.32983H0.583252V35.4459H7.85805V16.7744L8.63504 16.2624C9.16227 15.8846 9.72438 15.5539 10.3143 15.2746C10.6272 15.1374 10.9667 15.0656 11.3106 15.0638C11.4877 15.0519 11.6654 15.0785 11.8304 15.1415C11.9954 15.2045 12.1435 15.3024 12.2639 15.4279C12.3842 15.5534 12.4736 15.7033 12.5255 15.8665C12.5775 16.0298 12.5905 16.2021 12.5638 16.3708V35.458H18.8924V16.7864L19.7446 16.2263C20.226 15.8937 20.7282 15.5899 21.2484 15.3168C21.5805 15.154 21.9472 15.0674 22.3199 15.0638C22.6469 15.0553 22.9658 15.1624 23.216 15.365C23.349 15.4972 23.4504 15.6556 23.5132 15.8293C23.5759 16.0031 23.5985 16.1878 23.5794 16.3708V35.4399H30.8229V13.5942C30.8435 12.8303 30.7116 12.0697 30.4344 11.3536C30.2106 10.7817 29.8449 10.271 29.3692 9.86589C28.9089 9.48866 28.3708 9.20948 27.7901 9.04675C27.1791 8.87764 26.5462 8.79247 25.9103 8.79378C25.1066 8.79928 24.3128 8.96542 23.5794 9.28165C22.7845 9.62213 22.0987 10.1607 21.5931 10.8416L20.672 11.986H18.6355C18.4103 10.9996 17.8369 10.1186 17.0126 9.49246C16.0792 8.96679 15.0028 8.72333 13.9235 8.79378C13.1813 8.80031 12.4512 8.97575 11.7931 9.30574C11.04 9.68011 10.378 10.2036 9.85063 10.8416L8.86688 11.986ZM93.0424 8.93229C91.5825 9.04071 90.1476 9.1431 88.7189 9.23345L86.6323 9.37198V15.7083L89.0573 15.2445C90.4295 14.9975 91.7391 14.7988 92.9359 14.6422C93.9966 14.4952 95.0663 14.4167 96.1378 14.4073C99.016 14.4073 100.455 15.5436 100.455 17.8163V19.1173H94.4899C93.2013 19.1082 91.9156 19.2334 90.6551 19.4908C89.5675 19.7076 88.5467 20.1631 87.6725 20.8219C86.8081 21.5138 86.1399 22.4048 85.73 23.4118C85.2179 24.7381 84.9795 26.1477 85.0283 27.5617C85.0324 30.2681 85.6883 32.3501 86.9958 33.8076C87.6133 34.5178 88.3902 35.084 89.2683 35.4638C90.1463 35.8435 91.1025 36.0269 92.0649 36C93.1875 36.027 94.303 35.8216 95.3358 35.3977C96.3417 34.931 97.2357 34.2685 97.9612 33.4523L98.6442 32.7054H100.631C100.919 33.6647 101.535 34.5027 102.379 35.0845C103.357 35.7404 104.533 36.0685 105.725 36.0181C106.399 36.0241 107.072 35.9696 107.736 35.8555C108.306 35.7471 109.152 35.6146 110.186 35.458V30.6395L109.121 30.778C108.937 30.8144 108.747 30.8082 108.566 30.76C108.385 30.7119 108.219 30.6231 108.081 30.501C107.935 30.352 107.823 30.1755 107.751 29.9826C107.68 29.7898 107.652 29.5848 107.667 29.3807V16.5093C107.71 15.2625 107.444 14.0238 106.89 12.8955C106.397 11.9428 105.662 11.1247 104.754 10.5164C103.77 9.87693 102.668 9.42503 101.508 9.18526C100.169 8.90024 98.8002 8.76084 97.4286 8.76967C95.9687 8.76967 94.5024 8.82388 93.0424 8.93229ZM95.4486 23.3154H100.461L100.418 26.8148L98.6254 27.9351C97.7482 28.4953 97.0151 28.935 96.4198 29.2602C95.8503 29.5832 95.2012 29.7537 94.54 29.7541C94.2111 29.7631 93.8846 29.698 93.5866 29.5641C93.2885 29.4303 93.0271 29.2313 92.8231 28.9832C92.3409 28.2898 92.1199 27.4589 92.1965 26.6281C92.1965 24.4237 93.2805 23.3154 95.4486 23.3154ZM121.571 29.0975C122.348 29.5841 123.263 29.8281 124.19 29.7962C125.031 29.7777 125.861 29.6124 126.64 29.3083C127.602 28.9495 128.534 28.5206 129.428 28.0254L131.371 27.0015V34.181L129.14 34.7833C128.004 35.0965 126.799 35.3756 125.525 35.6205C124.254 35.8708 122.961 35.996 121.665 35.994C119.446 36.0947 117.268 35.3967 115.555 34.0365C114.001 32.7275 113.224 30.6294 113.224 27.7423V5.83035H106.094V0H120.505V26.6281C120.499 27.8086 120.856 28.6338 121.571 29.0975ZM134.812 9.32976H128.176L128.17 15.1541H134.812V27.5617C134.824 30.4568 135.599 32.5869 137.137 33.9522C138.674 35.3174 140.752 36 143.371 36C144.635 36.0089 145.896 35.8837 147.131 35.6266C148.296 35.3816 149.412 35.1026 150.477 34.7894L152.858 34.0907V27.0015L150.915 28.0254C149.951 28.5551 148.936 28.9929 147.883 29.3324C147.065 29.6142 146.207 29.7707 145.339 29.7962C144.906 29.8186 144.472 29.7582 144.064 29.6187C143.655 29.4791 143.279 29.2631 142.958 28.9831C142.644 28.637 142.406 28.2334 142.258 27.7966C142.11 27.3598 142.056 26.8988 142.099 26.4414V15.1541H152.043V9.32976H142.093V1.25883H134.812V9.32976ZM155.102 35.4399V29.6095H159.488V15.1541H155.102V9.32981H165.974L166.412 13.6182H168.543L170.147 11.6126C170.837 10.671 171.753 9.90257 172.816 9.37197C173.633 8.98851 174.527 8.78286 175.435 8.76966C175.994 8.77006 176.553 8.80022 177.108 8.86001L178.781 9.04672V16.5575L176.795 16.3949C176.273 16.3441 175.748 16.32 175.222 16.3226C174.114 16.3193 173.014 16.5007 171.97 16.8587C170.981 17.1935 170.036 17.6403 169.157 18.1898L166.77 19.6775V29.6095H176.325V35.4399H155.102ZM187.729 8.93229C186.271 9.04472 184.832 9.14511 183.412 9.23345L181.3 9.37198V15.7083L183.725 15.2445C185.097 14.9975 186.407 14.7988 187.604 14.6422C188.664 14.4954 189.734 14.417 190.806 14.4073C193.684 14.4073 195.123 15.5436 195.123 17.8163V19.1354H189.158C187.869 19.1262 186.583 19.2515 185.323 19.5088C184.236 19.7269 183.215 20.1823 182.34 20.8399C181.476 21.5306 180.81 22.4221 180.404 23.4299C179.89 24.7558 179.649 26.1654 179.696 27.5798C179.7 30.2861 180.356 32.3681 181.664 33.8257C182.282 34.5352 183.059 35.1009 183.937 35.4806C184.815 35.8603 185.771 36.0441 186.733 36.0181C187.857 36.045 188.975 35.8396 190.01 35.4158C191.023 34.944 191.923 34.2754 192.654 33.4523L193.331 32.7054H195.317C195.605 33.6647 196.221 34.5027 197.065 35.0845C198.045 35.7388 199.22 36.0667 200.411 36.0181C201.088 36.0238 201.763 35.9693 202.429 35.8555C202.999 35.7471 203.845 35.6146 204.879 35.458V30.6395L203.814 30.778C203.629 30.8149 203.438 30.809 203.256 30.7608C203.074 30.7126 202.907 30.6236 202.767 30.501C202.622 30.352 202.509 30.1755 202.438 29.9826C202.367 29.7898 202.338 29.5848 202.354 29.3807V16.5093C202.397 15.2625 202.13 14.0238 201.577 12.8955C201.086 11.9432 200.353 11.1251 199.447 10.5164C198.46 9.87793 197.357 9.42616 196.194 9.18526C194.855 8.90024 193.487 8.76084 192.115 8.76967C190.649 8.76565 189.187 8.81986 187.729 8.93229ZM190.135 23.3154H195.148L195.142 26.8148L193.35 27.9351C192.479 28.4953 191.739 28.935 191.144 29.2602C190.575 29.5835 189.926 29.754 189.264 29.7541C188.934 29.764 188.607 29.6994 188.307 29.5655C188.008 29.4316 187.746 29.2322 187.541 28.9832C187.048 28.2936 186.816 27.4624 186.883 26.6281C186.883 24.4237 187.967 23.3154 190.135 23.3154ZM213.411 11.9379H215.348L215.887 11.4741C216.746 10.7128 217.699 10.0554 218.725 9.51657C220.124 8.84725 221.707 8.61965 223.249 8.86625C224.79 9.11285 226.211 9.82105 227.309 10.8898C228.588 12.3073 229.227 14.315 229.227 16.9129V35.4399H221.946V18.3765C221.991 17.5599 221.807 16.7466 221.413 16.0215C221.22 15.7271 220.945 15.4901 220.62 15.3369C220.295 15.1838 219.931 15.1205 219.571 15.1542C219.173 15.1623 218.779 15.2335 218.405 15.365C217.82 15.5793 217.252 15.8371 216.707 16.1359L213.894 17.6297V35.4399H206.619V9.32986H212.885L213.411 11.9379ZM251.064 22.7131C250.478 22.0976 249.779 21.5912 249.002 21.2194C248.079 20.7766 247.122 20.4021 246.139 20.0991L240.706 18.515C240.225 18.3806 239.792 18.1223 239.453 17.7682C239.095 17.4017 238.899 16.9156 238.908 16.413C238.904 15.0758 239.633 14.4073 241.095 14.4073C242.281 14.4395 243.46 14.5971 244.61 14.8771C246.013 15.1822 247.427 15.5557 248.852 15.9974L251.133 16.6479V10.1188L249.096 9.7454C247.864 9.50046 246.481 9.2756 244.948 9.07081C243.543 8.87714 242.126 8.77652 240.706 8.76966C237.903 8.77769 235.725 9.43421 234.171 10.7392C232.617 12.0442 231.84 13.9555 231.84 16.4732C231.84 20.1473 233.845 22.6187 237.855 23.8876L243.776 25.7548C244.244 25.9049 244.672 26.1516 245.03 26.4775C245.211 26.6509 245.352 26.8591 245.444 27.0885C245.536 27.3178 245.576 27.5632 245.562 27.8086C245.578 28.0892 245.53 28.3697 245.422 28.6308C245.314 28.8918 245.148 29.1271 244.936 29.3204C244.34 29.7365 243.607 29.9274 242.874 29.8565C241.539 29.8316 240.211 29.6516 238.92 29.3204C237.417 28.9651 235.888 28.5194 234.34 27.9954L231.765 27.1039V34.0425L233.901 34.5545C235.386 34.8978 236.903 35.2231 238.438 35.5363C240.025 35.8494 241.642 36.0048 243.263 36C246.187 35.996 248.484 35.2652 250.155 33.8076C251.826 32.35 252.662 30.2982 252.662 27.652C252.678 26.6912 252.547 25.7332 252.273 24.8091C252.035 24.0334 251.623 23.3177 251.064 22.7131Z" fill="white"/>
</svg>
