<svg width="193" height="36" viewBox="0 0 193 36" fill="none" xmlns="http://www.w3.org/2000/svg">
<path id="Union" fill-rule="evenodd" clip-rule="evenodd" d="M22.9947 1.86188C23.4165 1.19708 23.9478 0.729851 24.5806 0.454855C25.2134 0.153159 25.8675 0.000976562 26.5323 0.000976562C27.3119 0.000976562 27.9526 0.289323 28.4332 0.866015C28.9191 1.41067 29.1568 2.15289 29.1568 3.08735V24.6252L44.3029 1.86188C44.7248 1.19708 45.2427 0.729851 45.8461 0.454855C46.4789 0.153159 47.1463 0.000976562 47.8432 0.000976562C48.6228 0.000976562 49.2635 0.289323 49.7441 0.866015C50.23 1.41067 50.4677 2.15289 50.4677 3.08735V35.6464H44.3056V11.7484L30.5291 33.5105C30.0111 34.3302 29.4531 34.8855 28.8524 35.1872C28.2437 35.4889 27.6242 35.6411 26.9968 35.6411C26.4522 35.6411 25.9342 35.5503 25.4536 35.3714C24.9677 35.1605 24.5459 34.8722 24.1801 34.5064C23.8143 34.1406 23.534 33.7188 23.3231 33.2382C23.1122 32.7523 23.0107 32.2076 23.0107 31.6069V11.7484L7.85118 35.6411H0.509033L22.9947 1.86188ZM71.9151 35.6427H54.3687V0.27494H71.6455V6.44501H60.5388V14.6469H70.0969V20.7715H60.5388V29.4727H71.9151V35.6427ZM74.8148 35.6374V35.6427H74.8122L74.8068 35.6374H74.8148ZM74.8148 35.6374V0.27494H84.971C87.6008 0.27494 90.0011 0.69678 92.1823 1.54313C94.3583 2.38681 96.2325 3.58558 97.7998 5.1261C99.375 6.63724 100.595 8.45276 101.473 10.5646C102.349 12.6818 102.784 15.026 102.784 17.5917C102.784 20.1575 102.331 22.507 101.42 24.7069C100.544 26.9149 99.3216 28.8346 97.7464 30.4658C96.1711 32.0651 94.2835 33.3386 92.0782 34.2731C89.9023 35.1808 87.5288 35.6374 84.963 35.6374H74.8148ZM80.9769 29.4753V6.44768H84.971C86.6691 6.44768 88.2229 6.75472 89.6433 7.35544C91.0877 7.92679 92.3292 8.72508 93.3598 9.75565C94.3903 10.7782 95.1886 12.0197 95.7653 13.4721C96.334 14.8925 96.6223 16.4677 96.6223 18.099C96.6223 19.7303 96.342 21.2414 95.7653 22.6351C95.2233 24.0234 94.4357 25.2329 93.4051 26.2635C92.3746 27.254 91.1518 28.0416 89.7314 28.6183C88.311 29.187 86.7171 29.4753 84.971 29.4753H80.9769ZM112.171 6.48636H106.009V0.278911H112.171V6.48636ZM112.171 35.6387H106.009V8.72104H112.171V35.6387ZM116.201 35.6427H133.748V29.4727H122.369V20.7715H131.935V14.6469H122.369V6.44501H133.478V0.27494H116.201V35.6427ZM142.593 11.1132V35.6414H136.655V3.35727C136.655 2.42282 136.911 1.68059 137.429 1.13594C137.942 0.559247 138.684 0.278911 139.651 0.278911C140.251 0.278911 140.809 0.412404 141.327 0.687401C141.872 0.930359 142.414 1.39759 142.959 2.09442L160.235 24.8043V0.278911H166.128V32.6004C166.128 34.8644 165.354 35.9991 163.818 35.9991C163.063 35.9991 162.398 35.8336 161.829 35.4999C161.253 35.1341 160.62 34.5921 159.923 33.8686L142.606 11.1079L142.593 11.1132ZM183.712 35.6427V6.44501H192.741V0.27494H168.528V6.44501H177.55V35.6427H183.712Z" fill="white"/>
</svg>
