<svg width="145" height="40" viewBox="0 0 145 40" fill="none" xmlns="http://www.w3.org/2000/svg">
<path id="Union" fill-rule="evenodd" clip-rule="evenodd" d="M81.6835 0.341355C81.6835 0.110439 81.798 0 82.0248 0H87.0749C87.3058 0 87.4203 0.114454 87.4203 0.341355V29.5554C87.4203 29.7863 87.3058 29.8967 87.0749 29.8967H86.344C84.8621 29.8967 83.6553 29.3144 82.7236 28.1558C80.9205 29.8043 78.7217 30.6276 76.1355 30.6276C72.9328 30.6276 70.1959 29.4931 67.9229 27.2221C65.6478 24.9531 64.5173 22.2162 64.5173 19.0135C64.5173 15.8108 65.6518 13.0659 67.9229 10.7908C70.1919 8.52585 72.9287 7.39537 76.1355 7.39537C78.2177 7.39537 80.0691 7.94756 81.6795 9.04994V0.341355H81.6835ZM71.979 14.849C70.8344 15.9895 70.2581 17.373 70.2581 19.0095C70.2581 20.646 70.8304 22.0194 71.979 23.17C73.1235 24.3145 74.513 24.8908 76.1395 24.8908C77.7659 24.8908 79.1494 24.3186 80.3 23.17C81.4445 22.0255 82.0208 20.6359 82.0208 19.0095C82.0208 17.383 81.4486 15.9895 80.3 14.849C79.1555 13.7044 77.7659 13.1281 76.1395 13.1281C74.513 13.1281 73.1235 13.7004 71.979 14.849ZM22.2549 8.12558H22.9858C23.2167 8.12558 23.3312 8.24004 23.3312 8.46694V29.5547C23.3312 29.7856 23.2167 29.896 22.9858 29.896H22.2549C20.773 29.896 19.5662 29.3137 18.6345 28.1551C16.8314 29.8037 14.6326 30.6269 12.0464 30.6269C8.84364 30.6269 6.10677 29.4924 3.83374 27.2214C1.56273 24.9484 0.428223 22.2115 0.428223 19.0088C0.428223 15.8061 1.56273 13.0612 3.83374 10.7861C6.10275 8.52115 8.83962 7.39067 12.0464 7.39067C14.6326 7.39067 16.8273 8.21393 18.6345 9.86248C19.5682 8.70388 20.775 8.12157 22.2549 8.12157V8.12558ZM7.88583 14.8483C6.74129 15.9888 6.165 17.3723 6.165 19.0088C6.165 20.6453 6.73727 22.0187 7.88583 23.1693C9.03038 24.3139 10.4199 24.8901 12.0464 24.8901C13.6728 24.8901 15.0563 24.3179 16.2069 23.1693C17.3514 22.0248 17.9277 20.6353 17.9277 19.0088C17.9277 17.3823 17.3554 15.9888 16.2069 14.8483C15.0623 13.7037 13.6728 13.1274 12.0464 13.1274C10.4199 13.1274 9.03038 13.6997 7.88583 14.8483ZM27.1927 15.527C27.1927 13.0652 28.0159 11.0793 29.6545 9.57333C31.2468 8.12157 33.2989 7.39067 35.8149 7.39067C36.6322 7.39067 37.4153 7.47299 38.1663 7.63564C38.345 7.67981 38.4353 7.79025 38.4353 7.96695V13.3383C38.4353 13.4829 38.3731 13.5833 38.2526 13.6515C38.1221 13.7138 38.0016 13.7098 37.8871 13.6314C37.4012 13.2941 36.7085 13.1274 35.8149 13.1274C34.7768 13.1274 34.0158 13.3483 33.5359 13.782C33.1363 14.1515 32.9355 14.7338 32.9355 15.523V29.5466C32.9355 29.7776 32.821 29.888 32.5941 29.888H27.5441C27.3132 29.888 27.1987 29.7735 27.1987 29.5466V15.523L27.1947 15.527H27.1927ZM61.972 8.12752H61.2411C59.7613 8.12752 58.5545 8.70983 57.6208 9.86843C55.8136 8.21989 53.6189 7.39662 51.0326 7.39662C47.8259 7.39662 45.089 8.52711 42.82 10.7921C40.549 13.0671 39.4145 15.812 39.4145 19.0148C39.4145 22.2175 40.551 24.9543 42.82 27.2233C45.093 29.4944 47.8299 30.6289 51.0326 30.6289C53.6189 30.6289 55.8176 29.8056 57.6208 28.1571C58.5525 29.3157 59.7592 29.898 61.2411 29.898H61.972C62.2029 29.898 62.3174 29.7875 62.3174 29.5566V8.46888C62.3174 8.24198 62.2029 8.12752 61.972 8.12752ZM45.1512 19.0148C45.1512 17.3783 45.7275 15.9948 46.8721 14.8542C48.0166 13.7057 49.4061 13.1334 51.0326 13.1334C52.6591 13.1334 54.0486 13.7097 55.1931 14.8542C56.3417 15.9948 56.9139 17.3883 56.9139 19.0148C56.9139 20.6412 56.3377 22.0307 55.1931 23.1753C54.0425 24.3238 52.6591 24.8961 51.0326 24.8961C49.4061 24.8961 48.0166 24.3198 46.8721 23.1753C45.7235 22.0247 45.1512 20.6513 45.1512 19.0148ZM115.501 0H120.555C120.743 0 120.896 0.15283 120.896 0.341355V29.5554C120.896 29.7439 120.743 29.8967 120.555 29.8967H115.501C115.312 29.8967 115.159 29.7439 115.159 29.5554V0.341355C115.159 0.15283 115.312 0 115.501 0ZM124.752 8.46659C124.752 8.23567 124.866 8.12523 125.097 8.12523H128.772C129.243 8.12523 129.647 8.2939 129.988 8.62923C130.326 8.96657 130.492 9.37017 130.492 9.84606V22.4842C130.492 23.1429 130.737 23.6529 131.233 24.0083C132.037 24.5946 133.247 24.8878 134.878 24.8878C136.508 24.8878 137.711 24.5946 138.522 24.0083C139.018 23.6529 139.263 23.1429 139.263 22.4842V8.46659C139.263 8.23567 139.378 8.12523 139.609 8.12523H144.659C144.89 8.12523 145 8.23969 145 8.46659V22.4802C145 25.0826 143.962 27.1347 141.884 28.6507C140.07 29.968 137.733 30.6266 134.878 30.6266C132.023 30.6266 129.685 29.968 127.872 28.6507C125.794 27.1407 124.756 25.0826 124.756 22.4802V8.46659H124.752ZM113.041 16.605C113.041 19.0949 112.354 21.3037 110.979 23.2313H110.975L105.969 34.5182V37.4036C105.969 38.8313 104.8 39.9999 103.373 39.9999H99.4732C98.0456 39.9999 96.8769 38.8313 96.8769 37.4036V34.5182L91.871 23.2313C90.5016 21.3037 89.8089 19.0969 89.8089 16.605C89.8089 13.3923 90.9454 10.6514 93.2144 8.38238C95.4874 6.11738 98.2243 4.9869 101.427 4.9869C104.63 4.9869 107.367 6.11738 109.636 8.38238C111.907 10.6574 113.041 13.3983 113.041 16.605ZM104.18 27.9174L102.459 33.9278H100.397L98.6761 27.9159C99.5515 28.1187 100.469 28.2232 101.431 28.2232C102.39 28.2232 103.302 28.1173 104.18 27.9174ZM93.4132 25.0024L97.3709 33.9278H99.6841L97.899 27.7051C96.2464 27.1911 94.7505 26.2855 93.4132 25.0024ZM104.961 27.7051L103.176 33.9278H105.489L109.447 25.0024C108.106 26.2915 106.616 27.1911 104.961 27.7051Z" fill="white"/>
</svg>
