<svg width="176" height="36" viewBox="0 0 176 36" fill="none" xmlns="http://www.w3.org/2000/svg">
<path id="Union" fill-rule="evenodd" clip-rule="evenodd" d="M37.7519 35.0802H45.5232C47.6401 35.0802 49.3625 33.3846 49.3625 31.3017V3.77843C49.3625 1.69554 47.6401 0 45.5232 0H37.7519C36.6411 0 35.5838 0.472608 34.8529 1.29845L29.8077 7.01603L34.1002 11.8761L38.9066 6.43137H42.9238V28.6488H38.9066L14.7574 1.29602C14.0265 0.472608 12.9717 0 11.8608 0H4.08957C1.97258 0 0.250244 1.69554 0.250244 3.77843V31.3017C0.250244 33.3846 1.97258 35.0802 4.08957 35.0802H11.8584C12.9717 35.0802 14.029 34.6076 14.7574 33.7817L19.7782 28.0982L15.4858 23.2357L10.7061 28.6488H6.68892V6.43137H10.7061L34.8554 33.7817C35.5838 34.6076 36.6386 35.0802 37.7519 35.0802ZM108.46 7.58365H101.946H101.944V5.88811C101.944 4.26809 101.371 2.8795 100.221 1.72234C99.064 0.574925 97.6754 0 96.0554 0H95.1321C94.8422 0 94.6985 0.143731 94.6985 0.43363V25.7108C94.6985 28.8242 95.7363 31.3285 97.807 33.2287C99.8168 35.0729 102.409 35.9962 105.583 35.9962C106.614 35.9962 107.605 35.8865 108.555 35.6697C108.782 35.6234 108.894 35.4846 108.894 35.2483V28.8461C108.894 28.6756 108.818 28.5392 108.65 28.4661C108.495 28.399 108.292 28.4559 108.112 28.5063C108.037 28.5272 107.966 28.547 107.905 28.5562C107.084 28.7146 106.713 28.7487 105.583 28.7487C104.27 28.7487 103.313 28.4685 102.706 27.9082C102.199 27.4478 101.946 26.7145 101.946 25.7108V14.8287H106.709C107.315 14.8287 107.829 14.6167 108.256 14.1904C108.682 13.7665 108.894 13.2549 108.894 12.6581V8.01728C108.894 7.72738 108.75 7.58365 108.46 7.58365ZM91.6845 21.3321C91.6845 17.2808 90.2496 13.8191 87.3823 10.9518C84.515 8.09421 81.0581 6.66421 77.0166 6.66421C72.9751 6.66421 69.5182 8.09421 66.6509 10.9518C63.7836 13.8191 62.3487 17.2906 62.3487 21.3321C62.3487 25.3736 63.7836 28.8305 66.6509 31.6978C69.5182 34.5676 72.9751 36 77.0166 36C81.0581 36 84.515 34.5651 87.3823 31.6978C90.2496 28.8305 91.6845 25.3834 91.6845 21.3321ZM69.5938 21.3321C69.5938 19.2687 70.3173 17.5171 71.7643 16.0798C73.2138 14.6328 74.963 13.9092 77.0166 13.9092C79.0703 13.9092 80.8218 14.6328 82.2689 16.0798C83.716 17.5196 84.4395 19.2785 84.4395 21.3321C84.4395 23.3858 83.716 25.1349 82.2689 26.5819C80.8194 28.029 79.0703 28.7525 77.0166 28.7525C74.963 28.7525 73.2114 28.029 71.7643 26.5819C70.3173 25.1349 69.5938 23.3955 69.5938 21.3321ZM135.604 10.9518C136.69 12.0383 137.511 13.3489 138.072 14.8861C138.678 16.5232 138.832 18.0531 138.535 19.4733C138.254 20.8035 137.611 21.8534 136.608 22.6208C135.623 23.3711 134.432 23.7463 133.041 23.7463H118.21C118.58 24.8231 119.172 25.7683 119.988 26.5819C121.435 28.029 123.187 28.7525 125.241 28.7525C127.294 28.7525 129.046 28.029 130.493 26.5819C130.627 26.4455 130.754 26.3067 130.873 26.1605C130.963 26.0606 131.075 26.0119 131.212 26.0119H138.525C138.678 26.0119 138.795 26.0752 138.876 26.2019C138.966 26.3286 138.985 26.465 138.929 26.6087C138.189 28.5357 137.078 30.2313 135.606 31.6978C132.739 34.5651 129.282 36 125.241 36C121.199 36 117.742 34.5676 114.875 31.6978C112.008 28.8305 110.573 25.3736 110.573 21.3321C110.573 17.2906 112.008 13.8191 114.875 10.9518C117.742 8.09421 121.199 6.66421 125.241 6.66421C129.282 6.66421 132.739 8.09421 135.606 10.9518H135.604ZM125.238 13.9092C123.185 13.9092 121.435 14.6328 119.986 16.0798C119.272 16.7863 118.729 17.6048 118.359 18.5354H130.259C130.749 18.5354 131.073 18.3332 131.236 17.9264C131.445 17.3929 131.197 16.7766 130.49 16.0798C129.043 14.6328 127.292 13.9092 125.238 13.9092ZM142.409 0C142.17 0 141.975 0.19489 141.975 0.43363V34.6417C141.975 34.8804 142.17 35.0753 142.409 35.0753H148.787C149.025 35.0753 149.22 34.8804 149.22 34.6417V5.81259C149.22 2.60178 146.619 0 143.408 0H142.409ZM153.975 8.01384C153.975 7.7751 154.17 7.58021 154.409 7.58021H175.182C175.345 7.58021 175.513 7.63381 175.605 7.79215C175.691 7.93588 175.652 8.19168 175.571 8.33541L164.424 27.8244H172.477C173.04 27.8244 173.593 28.0217 174.002 28.4091C174.465 28.8451 174.694 29.3738 174.694 29.995V34.6358C174.694 34.8745 174.499 35.0694 174.261 35.0694H152.672C152.499 35.0694 152.375 34.9963 152.292 34.8526C152.211 34.7089 152.211 34.5627 152.292 34.419L163.5 14.8252H159.732C156.553 14.8252 153.975 12.2478 153.975 9.06868V8.01384Z" fill="white"/>
</svg>
